<svg height="600" width="800" xmlns="http://www.w3.org/2000/svg">
<g>
<path d="M410.22488,288.28894 L359.68796,242.74449 L380.0848,366.0292 z" fill="#5a4c83" stroke="none"/>
<path d="M359.68796,242.74449 L276.17773,279.36484 L380.0848,366.0292 z" fill="#564d88" stroke="none"/>
<path d="M276.17773,279.36484 L317.50638,386.37204 L380.0848,366.0292 z" fill="#594c84" stroke="none"/>
<path d="M317.50638,386.37204 L381.52988,386.98047 L380.0848,366.0292 z" fill="#604a7d" stroke="none"/>
<path d="M525.9429,282.61942 L488.52057,249.62975 L410.22488,288.28894 z" fill="#61497c" stroke="none"/>
<path d="M476.3975,174.3722 L355.29065,218.39043 L359.68796,242.74449 z" fill="#534e8a" stroke="none"/>
<path d="M359.68796,242.74449 L355.29065,218.39043 L276.17773,279.36484 z" fill="#50508d" stroke="none"/>
<path d="M188.86183,274.8864 L247.8213,290.43622 L185.87637,229.76125 z" fill="#455398" stroke="none"/>
<path d="M276.17773,279.36484 L282.2419,386.97015 L317.50638,386.37204 z" fill="#564d87" stroke="none"/>
<path d="M247.8213,290.43622 L282.2419,386.97015 L276.17773,279.36484 z" fill="#514f8c" stroke="none"/>
<path d="M317.50638,386.37204 L358.40985,424.70035 L381.52988,386.98047 z" fill="#62497c" stroke="none"/>
<path d="M282.2419,386.97015 L358.40985,424.70035 L317.50638,386.37204 z" fill="#5e4a7f" stroke="none"/>
<path d="M355.29065,218.39043 L322.69385,183.99329 L276.17773,279.36484 z" fill="#4c5191" stroke="none"/>
<path d="M476.3975,174.3722 L358.45026,178.14185 L355.29065,218.39043 z" fill="#514f8c" stroke="none"/>
<path d="M355.29065,218.39043 L358.45026,178.14185 L322.69385,183.99329 z" fill="#4c5191" stroke="none"/>
<path d="M525.9429,282.61942 L410.22488,288.28894 L380.0848,366.0292 z" fill="#61497c" stroke="none"/>
<path d="M410.22488,288.28894 L487.23648,245.5827 L359.68796,242.74449 z" fill="#5a4c83" stroke="none"/>
<path d="M441.60855,443.79877 L380.0848,366.0292 L381.52988,386.98047 z" fill="#674777" stroke="none"/>
<path d="M488.52057,249.62975 L487.23648,245.5827 L410.22488,288.28894 z" fill="#5f4a7f" stroke="none"/>
<path d="M185.87637,229.76125 L247.8213,290.43622 L276.17773,279.36484 z" fill="#485295" stroke="none"/>
<path d="M247.8213,290.43622 L177.21878,374.13004 L282.2419,386.97015 z" fill="#514f8d" stroke="none"/>
<path d="M355.50925,510.41998 L397.644,465.07797 L358.40985,424.70035 z" fill="#6a4673" stroke="none"/>
<path d="M358.40985,424.70035 L397.644,465.07797 L381.52988,386.98047 z" fill="#674777" stroke="none"/>
<path d="M397.644,465.07797 L441.60855,443.79877 L381.52988,386.98047 z" fill="#6a4673" stroke="none"/>
<path d="M358.45026,178.14185 L283.41504,146.86911 L322.69385,183.99329 z" fill="#475396" stroke="none"/>
<path d="M322.69385,183.99329 L283.41504,146.86911 L276.17773,279.36484 z" fill="#475295" stroke="none"/>
<path d="M283.41504,146.86911 L185.87637,229.76125 L276.17773,279.36484 z" fill="#445498" stroke="none"/>
<path d="M441.60855,443.79877 L525.9429,282.61942 L380.0848,366.0292 z" fill="#684776" stroke="none"/>
<path d="M488.52057,249.62975 L564.0174,274.87103 L487.23648,245.5827 z" fill="#63497a" stroke="none"/>
<path d="M151.35721,309.8737 L177.21878,374.13004 L188.86183,274.8864 z" fill="#475396" stroke="none"/>
<path d="M188.86183,274.8864 L177.21878,374.13004 L247.8213,290.43622 z" fill="#4a5293" stroke="none"/>
<path d="M310.10538,520.22296 L355.50925,510.41998 L358.40985,424.70035 z" fill="#694774" stroke="none"/>
<path d="M564.0174,274.87103 L476.3975,174.3722 L487.23648,245.5827 z" fill="#604a7d" stroke="none"/>
<path d="M487.23648,245.5827 L476.3975,174.3722 L359.68796,242.74449 z" fill="#584d85" stroke="none"/>
<path d="M358.45026,178.14185 L379.93396,85.92878 L283.41504,146.86911 z" fill="#455397" stroke="none"/>
<path d="M134.42644,245.86479 L167.21176,236.04816 L88.79211,143.48384 z" fill="#3758a5" stroke="none"/>
<path d="M185.87637,229.76125 L167.21176,236.04816 L188.86183,274.8864 z" fill="#40559c" stroke="none"/>
<path d="M110.47795,331.41943 L169.00414,385.96024 L177.21878,374.13004 z" fill="#495294" stroke="none"/>
<path d="M177.21878,374.13004 L169.00414,385.96024 L282.2419,386.97015 z" fill="#514f8c" stroke="none"/>
<path d="M134.42644,245.86479 L151.35721,309.8737 L188.86183,274.8864 z" fill="#41559c" stroke="none"/>
<path d="M282.247,505.11566 L358.40985,424.70035 L282.2419,386.97015 z" fill="#61497c" stroke="none"/>
<path d="M397.644,465.07797 L457.65524,482.802 L441.60855,443.79877 z" fill="#70446d" stroke="none"/>
<path d="M169.00414,385.96024 L257.4854,490.51834 L282.2419,386.97015 z" fill="#584d85" stroke="none"/>
<path d="M437.43066,522.9706 L457.65524,482.802 L397.644,465.07797 z" fill="#73436b" stroke="none"/>
<path d="M571.388,335.4632 L564.0174,274.87103 L525.9429,282.61942 z" fill="#6c4672" stroke="none"/>
<path d="M257.4854,490.51834 L282.247,505.11566 L282.2419,386.97015 z" fill="#604a7e" stroke="none"/>
<path d="M476.3975,174.3722 L440.03757,119.51561 L358.45026,178.14185 z" fill="#504f8d" stroke="none"/>
<path d="M282.247,505.11566 L310.10538,520.22296 L358.40985,424.70035 z" fill="#674777" stroke="none"/>
<path d="M571.388,335.4632 L525.9429,282.61942 L441.60855,443.79877 z" fill="#6d4570" stroke="none"/>
<path d="M525.9429,282.61942 L564.0174,274.87103 L488.52057,249.62975 z" fill="#664877" stroke="none"/>
<path d="M476.3975,174.3722 L467.7214,114.479675 L440.03757,119.51561 z" fill="#524f8b" stroke="none"/>
<path d="M73.80886,199.27397 L134.42644,245.86479 L88.79211,143.48384 z" fill="#335aaa" stroke="none"/>
<path d="M167.21176,236.04816 L134.42644,245.86479 L188.86183,274.8864 z" fill="#3f559e" stroke="none"/>
<path d="M151.35721,309.8737 L110.47795,331.41943 L177.21878,374.13004 z" fill="#465397" stroke="none"/>
<path d="M440.03757,119.51561 L379.93396,85.92878 L358.45026,178.14185 z" fill="#4a5293" stroke="none"/>
<path d="M527.4419,447.4731 L571.388,335.4632 L441.60855,443.79877 z" fill="#73436b" stroke="none"/>
<path d="M457.65524,482.802 L527.4419,447.4731 L441.60855,443.79877 z" fill="#74436a" stroke="none"/>
<path d="M504.71225,57.895084 L467.7214,114.479675 L541.05927,57.70308 z" fill="#504f8d" stroke="none"/>
<path d="M440.03757,119.51561 L386.41867,71.40816 L379.93396,85.92878 z" fill="#475396" stroke="none"/>
<path d="M399.487,546.5731 L437.43066,522.9706 L397.644,465.07797 z" fill="#73436b" stroke="none"/>
<path d="M457.65524,482.802 L490.9556,498.77502 L527.4419,447.4731 z" fill="#784166" stroke="none"/>
<path d="M399.487,546.5731 L397.644,465.07797 L355.50925,510.41998 z" fill="#70446e" stroke="none"/>
<path d="M246.40825,89.78483 L228.50333,105.63654 L283.41504,146.86911 z" fill="#3a57a3" stroke="none"/>
<path d="M283.41504,146.86911 L228.50333,105.63654 L185.87637,229.76125 z" fill="#3d56a0" stroke="none"/>
<path d="M134.42644,245.86479 L109.416855,312.63495 L151.35721,309.8737 z" fill="#40559d" stroke="none"/>
<path d="M109.416855,312.63495 L110.47795,331.41943 L151.35721,309.8737 z" fill="#42549b" stroke="none"/>
<path d="M169.00414,385.96024 L98.38961,477.61395 L257.4854,490.51834 z" fill="#554e88" stroke="none"/>
<path d="M437.43066,522.9706 L490.9556,498.77502 L457.65524,482.802 z" fill="#774267" stroke="none"/>
<path d="M418.16687,11.720785 L386.41867,71.40816 L440.03757,119.51561 z" fill="#465397" stroke="none"/>
<path d="M261.00983,82.16148 L246.40825,89.78483 L283.41504,146.86911 z" fill="#3a57a2" stroke="none"/>
<path d="M261.00983,82.16148 L283.41504,146.86911 L330.9964,57.689445 z" fill="#3c56a1" stroke="none"/>
<path d="M246.40825,89.78483 L227.87761,98.53464 L228.50333,105.63654 z" fill="#3758a6" stroke="none"/>
<path d="M88.79211,143.48384 L167.21176,236.04816 L185.87637,229.76125 z" fill="#3858a4" stroke="none"/>
<path d="M330.9964,57.689445 L283.41504,146.86911 L379.93396,85.92878 z" fill="#40559c" stroke="none"/>
<path d="M246.40825,89.78483 L203.4617,62.24342 L227.87761,98.53464 z" fill="#3459a8" stroke="none"/>
<path d="M310.10538,520.22296 L399.487,546.5731 L355.50925,510.41998 z" fill="#6f456f" stroke="none"/>
<path d="M630.79974,515.3043 L615.48364,478.7423 L490.9556,498.77502 z" fill="#833d5b" stroke="none"/>
<path d="M345.30313,46.365974 L330.9964,57.689445 L379.93396,85.92878 z" fill="#3f559e" stroke="none"/>
<path d="M386.33575,13.719446 L345.30313,46.365974 L386.41867,71.40816 z" fill="#3f559e" stroke="none"/>
<path d="M386.41867,71.40816 L345.30313,46.365974 L379.93396,85.92878 z" fill="#41559b" stroke="none"/>
<path d="M330.9964,57.689445 L277.5237,52.67388 L261.00983,82.16148 z" fill="#3958a4" stroke="none"/>
<path d="M282.62054,12.842278 L277.5237,52.67388 L330.9964,57.689445 z" fill="#3758a5" stroke="none"/>
<path d="M261.00983,82.16148 L203.4617,62.24342 L246.40825,89.78483 z" fill="#3559a8" stroke="none"/>
<path d="M527.4419,447.4731 L588.25165,429.94748 L571.388,335.4632 z" fill="#784166" stroke="none"/>
<path d="M571.388,335.4632 L714.9389,320.5176 L564.0174,274.87103 z" fill="#74436a" stroke="none"/>
<path d="M615.48364,478.7423 L588.25165,429.94748 L527.4419,447.4731 z" fill="#7e3f60" stroke="none"/>
<path d="M42.922104,340.72086 L110.47795,331.41943 L109.416855,312.63495 z" fill="#3f559e" stroke="none"/>
<path d="M42.922104,340.72086 L80.79054,365.1891 L110.47795,331.41943 z" fill="#40559d" stroke="none"/>
<path d="M110.47795,331.41943 L80.79054,365.1891 L169.00414,385.96024 z" fill="#465397" stroke="none"/>
<path d="M588.25165,429.94748 L613.6472,373.32834 L571.388,335.4632 z" fill="#784166" stroke="none"/>
<path d="M277.5237,52.67388 L203.4617,62.24342 L261.00983,82.16148 z" fill="#3559a8" stroke="none"/>
<path d="M227.87761,98.53464 L203.4617,62.24342 L228.50333,105.63654 z" fill="#3459a8" stroke="none"/>
<path d="M134.42644,245.86479 L41.402233,268.30154 L109.416855,312.63495 z" fill="#3a57a2" stroke="none"/>
<path d="M80.79054,365.1891 L90.97068,434.75092 L169.00414,385.96024 z" fill="#495294" stroke="none"/>
<path d="M257.4854,490.51834 L157.47235,556.448 L282.247,505.11566 z" fill="#61497c" stroke="none"/>
<path d="M282.247,505.11566 L157.47235,556.448 L310.10538,520.22296 z" fill="#644879" stroke="none"/>
<path d="M88.79211,143.48384 L185.87637,229.76125 L228.50333,105.63654 z" fill="#3659a7" stroke="none"/>
<path d="M541.05927,57.70308 L467.7214,114.479675 L476.3975,174.3722 z" fill="#534e8a" stroke="none"/>
<path d="M467.7214,114.479675 L418.16687,11.720785 L440.03757,119.51561 z" fill="#4a5293" stroke="none"/>
<path d="M541.05927,57.70308 L476.3975,174.3722 L639.6292,133.35835 z" fill="#5a4c84" stroke="none"/>
<path d="M20.18144,372.62122 L78.58926,435.96695 L80.79054,365.1891 z" fill="#43549a" stroke="none"/>
<path d="M80.79054,365.1891 L78.58926,435.96695 L90.97068,434.75092 z" fill="#475396" stroke="none"/>
<path d="M90.97068,434.75092 L98.38961,477.61395 L169.00414,385.96024 z" fill="#4d5090" stroke="none"/>
<path d="M418.16687,11.720785 L386.33575,13.719446 L386.41867,71.40816 z" fill="#40559c" stroke="none"/>
<path d="M345.30313,46.365974 L282.62054,12.842278 L330.9964,57.689445 z" fill="#3958a3" stroke="none"/>
<path d="M277.5237,52.67388 L282.62054,12.842278 L203.4617,62.24342 z" fill="#335aaa" stroke="none"/>
<path d="M78.58926,435.96695 L98.38961,477.61395 L90.97068,434.75092 z" fill="#4c5191" stroke="none"/>
<path d="M310.10538,520.22296 L145.23723,593.59033 L399.487,546.5731 z" fill="#6a4673" stroke="none"/>
<path d="M386.33575,13.719446 L282.62054,12.842278 L345.30313,46.365974 z" fill="#3a57a3" stroke="none"/>
<path d="M504.71225,57.895084 L418.16687,11.720785 L467.7214,114.479675 z" fill="#4a5193" stroke="none"/>
<path d="M386.33575,13.719446 L418.16687,11.720785 L282.62054,12.842278 z" fill="#3b57a2" stroke="none"/>
<path d="M41.402233,268.30154 L42.922104,340.72086 L109.416855,312.63495 z" fill="#3b57a2" stroke="none"/>
<path d="M203.4617,62.24342 L88.79211,143.48384 L228.50333,105.63654 z" fill="#315aac" stroke="none"/>
<path d="M23.421803,200.0998 L41.402233,268.30154 L73.80886,199.27397 z" fill="#305bac" stroke="none"/>
<path d="M73.80886,199.27397 L41.402233,268.30154 L134.42644,245.86479 z" fill="#3559a7" stroke="none"/>
<path d="M98.38961,477.61395 L157.47235,556.448 L257.4854,490.51834 z" fill="#5a4c83" stroke="none"/>
<path d="M639.6292,133.35835 L476.3975,174.3722 L564.0174,274.87103 z" fill="#62497c" stroke="none"/>
<path d="M504.71225,57.895084 L616.8597,5.3995285 L418.16687,11.720785 z" fill="#4c5191" stroke="none"/>
<path d="M588.25165,429.94748 L615.48364,478.7423 L613.6472,373.32834 z" fill="#7e3f60" stroke="none"/>
<path d="M490.9556,498.77502 L615.48364,478.7423 L527.4419,447.4731 z" fill="#7d4061" stroke="none"/>
<path d="M630.79974,515.3043 L490.9556,498.77502 L593.73956,592.43134 z" fill="#863c58" stroke="none"/>
<path d="M88.79211,143.48384 L50.08818,184.8629 L73.80886,199.27397 z" fill="#2e5caf" stroke="none"/>
<path d="M41.402233,268.30154 L20.18144,372.62122 L42.922104,340.72086 z" fill="#3a57a3" stroke="none"/>
<path d="M42.922104,340.72086 L20.18144,372.62122 L80.79054,365.1891 z" fill="#3e569e" stroke="none"/>
<path d="M10.743746,474.10712 L90.06806,532.3243 L98.38961,477.61395 z" fill="#4e508f" stroke="none"/>
<path d="M23.421803,200.0998 L20.18144,372.62122 L41.402233,268.30154 z" fill="#3459a8" stroke="none"/>
<path d="M189.83357,11.610865 L166.86528,25.937939 L203.4617,62.24342 z" fill="#2b5db1" stroke="none"/>
<path d="M203.4617,62.24342 L166.86528,25.937939 L88.79211,143.48384 z" fill="#2c5cb0" stroke="none"/>
<path d="M88.79211,143.48384 L23.421803,200.0998 L50.08818,184.8629 z" fill="#2c5cb0" stroke="none"/>
<path d="M282.62054,12.842278 L189.83357,11.610865 L203.4617,62.24342 z" fill="#2f5bae" stroke="none"/>
<path d="M418.16687,11.720785 L189.83357,11.610865 L282.62054,12.842278 z" fill="#3459a8" stroke="none"/>
<path d="M10.743746,474.10712 L98.38961,477.61395 L78.58926,435.96695 z" fill="#4a5193" stroke="none"/>
<path d="M98.38961,477.61395 L90.06806,532.3243 L157.47235,556.448 z" fill="#564d87" stroke="none"/>
<path d="M166.86528,25.937939 L23.421803,200.0998 L88.79211,143.48384 z" fill="#2b5db2" stroke="none"/>
<path d="M50.08818,184.8629 L23.421803,200.0998 L73.80886,199.27397 z" fill="#2d5caf" stroke="none"/>
<path d="M677.1699,184.47882 L564.0174,274.87103 L714.9389,320.5176 z" fill="#72436c" stroke="none"/>
<path d="M677.1699,184.47882 L639.6292,133.35835 L564.0174,274.87103 z" fill="#694775" stroke="none"/>
<path d="M86.37662,554.47644 L145.23723,593.59033 L157.47235,556.448 z" fill="#5c4b81" stroke="none"/>
<path d="M157.47235,556.448 L145.23723,593.59033 L310.10538,520.22296 z" fill="#63497b" stroke="none"/>
<path d="M593.73956,592.43134 L437.43066,522.9706 L399.487,546.5731 z" fill="#7e3f60" stroke="none"/>
<path d="M593.73956,592.43134 L490.9556,498.77502 L437.43066,522.9706 z" fill="#803f5e" stroke="none"/>
<path d="M730.5264,367.53128 L714.9389,320.5176 L613.6472,373.32834 z" fill="#7f3f5f" stroke="none"/>
<path d="M714.9389,320.5176 L571.388,335.4632 L613.6472,373.32834 z" fill="#794165" stroke="none"/>
<path d="M90.06806,532.3243 L86.37662,554.47644 L157.47235,556.448 z" fill="#584d85" stroke="none"/>
<path d="M10.743746,474.10712 L86.37662,554.47644 L90.06806,532.3243 z" fill="#504f8d" stroke="none"/>
<path d="M677.1699,184.47882 L650.5598,107.41257 L639.6292,133.35835 z" fill="#664877" stroke="none"/>
<path d="M639.6292,133.35835 L650.5598,107.41257 L541.05927,57.70308 z" fill="#5d4b80" stroke="none"/>
<path d="M730.5264,367.53128 L613.6472,373.32834 L729.91174,432.7396 z" fill="#833d5b" stroke="none"/>
<path d="M23.421803,200.0998 L10.743746,474.10712 L20.18144,372.62122 z" fill="#3a57a3" stroke="none"/>
<path d="M20.18144,372.62122 L10.743746,474.10712 L78.58926,435.96695 z" fill="#445499" stroke="none"/>
<path d="M145.23723,593.59033 L593.73956,592.43134 L399.487,546.5731 z" fill="#774267" stroke="none"/>
<path d="M650.5598,107.41257 L622.56714,41.568188 L541.05927,57.70308 z" fill="#5a4c84" stroke="none"/>
<path d="M541.05927,57.70308 L616.8597,5.3995285 L504.71225,57.895084 z" fill="#514f8c" stroke="none"/>
<path d="M709.1574,472.24628 L613.6472,373.32834 L615.48364,478.7423 z" fill="#843d5a" stroke="none"/>
<path d="M764.9149,209.61241 L692.91675,86.346634 L677.1699,184.47882 z" fill="#6e4570" stroke="none"/>
<path d="M709.1574,472.24628 L615.48364,478.7423 L630.79974,515.3043 z" fill="#893b55" stroke="none"/>
<path d="M707.9278,511.38983 L709.1574,472.24628 L630.79974,515.3043 z" fill="#8e3a51" stroke="none"/>
<path d="M709.1574,472.24628 L729.91174,432.7396 L613.6472,373.32834 z" fill="#863c58" stroke="none"/>
<path d="M665.6389,28.612875 L616.8597,5.3995285 L622.56714,41.568188 z" fill="#584d85" stroke="none"/>
<path d="M622.56714,41.568188 L616.8597,5.3995285 L541.05927,57.70308 z" fill="#554e88" stroke="none"/>
<path d="M418.16687,11.720785 L616.8597,5.3995285 L189.83357,11.610865 z" fill="#3f559d" stroke="none"/>
<path d="M665.6389,28.612875 L622.56714,41.568188 L650.5598,107.41257 z" fill="#5d4b81" stroke="none"/>
<path d="M764.9149,209.61241 L677.1699,184.47882 L714.9389,320.5176 z" fill="#774267" stroke="none"/>
<path d="M677.1699,184.47882 L692.91675,86.346634 L650.5598,107.41257 z" fill="#664877" stroke="none"/>
<path d="M704.3547,590.32745 L707.9278,511.38983 L630.79974,515.3043 z" fill="#92384d" stroke="none"/>
<path d="M709.1574,472.24628 L799.2128,468.1489 L729.91174,432.7396 z" fill="#90394e" stroke="none"/>
<path d="M692.91675,86.346634 L665.6389,28.612875 L650.5598,107.41257 z" fill="#614a7d" stroke="none"/>
<path d="M793.2625,244.038 L764.9149,209.61241 L714.9389,320.5176 z" fill="#7d4061" stroke="none"/>
<path d="M692.91675,86.346634 L690.70197,29.66978 L665.6389,28.612875 z" fill="#5f4a7e" stroke="none"/>
<path d="M793.2625,244.038 L714.9389,320.5176 L730.5264,367.53128 z" fill="#813e5d" stroke="none"/>
<path d="M695.16455,4.9989414 L690.70197,29.66978 L760.719,44.695244 z" fill="#614a7d" stroke="none"/>
<path d="M665.6389,28.612875 L695.16455,4.9989414 L616.8597,5.3995285 z" fill="#594c84" stroke="none"/>
<path d="M799.2128,468.1489 L793.2625,244.038 L730.5264,367.53128 z" fill="#893b55" stroke="none"/>
<path d="M760.719,44.695244 L690.70197,29.66978 L692.91675,86.346634 z" fill="#63497a" stroke="none"/>
<path d="M799.2128,468.1489 L730.5264,367.53128 L729.91174,432.7396 z" fill="#8d3a51" stroke="none"/>
<path d="M593.73956,592.43134 L704.3547,590.32745 L630.79974,515.3043 z" fill="#90394e" stroke="none"/>
<path d="M796.4304,495.01196 L799.2128,468.1489 L709.1574,472.24628 z" fill="#94374a" stroke="none"/>
<path d="M760.719,44.695244 L692.91675,86.346634 L764.9149,209.61241 z" fill="#6c4672" stroke="none"/>
<path d="M690.70197,29.66978 L695.16455,4.9989414 L665.6389,28.612875 z" fill="#5d4b81" stroke="none"/>
<path d="M796.4304,495.01196 L709.1574,472.24628 L707.9278,511.38983 z" fill="#93384c" stroke="none"/>
<path d="M762.3795,581.34717 L796.4304,495.01196 L707.9278,511.38983 z" fill="#983646" stroke="none"/>
<path d="M793.2625,244.038 L760.719,44.695244 L764.9149,209.61241 z" fill="#754269" stroke="none"/>
<path d="M704.3547,590.32745 L762.3795,581.34717 L707.9278,511.38983 z" fill="#983646" stroke="none"/>
</g>
</svg>
