<svg height="600" width="800" xmlns="http://www.w3.org/2000/svg">
<g>
<path d="M386.1159,316.0025 L409.37845,350.49054 L444.69113,346.17218 z" fill="#40080f" stroke="#40080f"/>
<path d="M409.37845,350.49054 L451.45187,357.76224 L444.69113,346.17218 z" fill="#38070d" stroke="#38070d"/>
<path d="M498.47168,307.30124 L428.52155,251.45381 L444.69113,346.17218 z" fill="#38070d" stroke="#38070d"/>
<path d="M444.69113,346.17218 L428.52155,251.45381 L386.1159,316.0025 z" fill="#430910" stroke="#430910"/>
<path d="M451.45187,357.76224 L498.47168,307.30124 L444.69113,346.17218 z" fill="#31060c" stroke="#31060c"/>
<path d="M318.13147,325.88596 L332.91052,330.00183 L314.2632,276.57965 z" fill="#5f0d17" stroke="#5f0d17"/>
<path d="M386.1159,316.0025 L332.91052,330.00183 L409.37845,350.49054 z" fill="#4c0a12" stroke="#4c0a12"/>
<path d="M498.47168,307.30124 L513.6267,284.19254 L428.52155,251.45381 z" fill="#35070c" stroke="#35070c"/>
<path d="M502.9682,238.13174 L455.63168,221.4767 L428.52155,251.45381 z" fill="#40090f" stroke="#40090f"/>
<path d="M314.2632,276.57965 L332.91052,330.00183 L386.1159,316.0025 z" fill="#590c15" stroke="#590c15"/>
<path d="M368.73572,219.71547 L386.1159,316.0025 L428.52155,251.45381 z" fill="#510b13" stroke="#510b13"/>
<path d="M374.2303,197.60974 L368.73572,219.71547 L428.52155,251.45381 z" fill="#580c15" stroke="#580c15"/>
<path d="M513.6267,284.19254 L502.9682,238.13174 L428.52155,251.45381 z" fill="#38070d" stroke="#38070d"/>
<path d="M368.73572,219.71547 L314.2632,276.57965 L386.1159,316.0025 z" fill="#5b0c16" stroke="#5b0c16"/>
<path d="M409.37845,350.49054 L454.81577,430.17416 L451.45187,357.76224 z" fill="#32070c" stroke="#32070c"/>
<path d="M451.45187,357.76224 L606.54456,355.31454 L498.47168,307.30124 z" fill="#200408" stroke="#200408"/>
<path d="M498.47168,307.30124 L590.2867,291.51553 L513.6267,284.19254 z" fill="#230408" stroke="#230408"/>
<path d="M424.99353,461.58746 L454.81577,430.17416 L409.37845,350.49054 z" fill="#30060b" stroke="#30060b"/>
<path d="M424.99353,461.58746 L409.37845,350.49054 L299.20352,405.46155 z" fill="#40090f" stroke="#40090f"/>
<path d="M516.08563,225.38727 L507.6555,220.79729 L502.9682,238.13174 z" fill="#34070c" stroke="#34070c"/>
<path d="M502.9682,238.13174 L507.6555,220.79729 L455.63168,221.4767 z" fill="#3a080e" stroke="#3a080e"/>
<path d="M455.63168,221.4767 L374.2303,197.60974 L428.52155,251.45381 z" fill="#4f0b13" stroke="#4f0b13"/>
<path d="M409.51227,136.95572 L374.2303,197.60974 L455.63168,221.4767 z" fill="#570c15" stroke="#570c15"/>
<path d="M368.73572,219.71547 L319.7387,224.40166 L314.2632,276.57965 z" fill="#660e19" stroke="#660e19"/>
<path d="M513.6267,284.19254 L516.08563,225.38727 L502.9682,238.13174 z" fill="#30060b" stroke="#30060b"/>
<path d="M528.8289,214.74698 L478.29846,197.12053 L507.6555,220.79729 z" fill="#38070d" stroke="#38070d"/>
<path d="M507.6555,220.79729 L478.29846,197.12053 L455.63168,221.4767 z" fill="#3f080f" stroke="#3f080f"/>
<path d="M374.2303,197.60974 L319.7387,224.40166 L368.73572,219.71547 z" fill="#640d18" stroke="#640d18"/>
<path d="M299.20352,405.46155 L409.37845,350.49054 L332.91052,330.00183 z" fill="#500b13" stroke="#500b13"/>
<path d="M513.6267,284.19254 L528.8289,214.74698 L516.08563,225.38727 z" fill="#2f060b" stroke="#2f060b"/>
<path d="M516.08563,225.38727 L528.8289,214.74698 L507.6555,220.79729 z" fill="#33070c" stroke="#33070c"/>
<path d="M291.44125,403.95328 L299.20352,405.46155 L318.13147,325.88596 z" fill="#5b0c16" stroke="#5b0c16"/>
<path d="M318.13147,325.88596 L299.20352,405.46155 L332.91052,330.00183 z" fill="#5a0c16" stroke="#5a0c16"/>
<path d="M291.44125,403.95328 L318.13147,325.88596 L241.73051,380.51242 z" fill="#620d18" stroke="#620d18"/>
<path d="M265.46753,276.48572 L318.13147,325.88596 L314.2632,276.57965 z" fill="#680e19" stroke="#680e19"/>
<path d="M299.20352,405.46155 L382.55853,491.27496 L424.99353,461.58746 z" fill="#3c080e" stroke="#3c080e"/>
<path d="M276.88354,236.25446 L265.46753,276.48572 L314.2632,276.57965 z" fill="#710f1b" stroke="#710f1b"/>
<path d="M319.7387,224.40166 L276.88354,236.25446 L314.2632,276.57965 z" fill="#6e0f1b" stroke="#6e0f1b"/>
<path d="M271.33823,143.18744 L276.88354,236.25446 L319.7387,224.40166 z" fill="#79101d" stroke="#79101d"/>
<path d="M606.54456,355.31454 L590.2867,291.51553 L498.47168,307.30124 z" fill="#160305" stroke="#160305"/>
<path d="M513.6267,284.19254 L590.2867,291.51553 L528.8289,214.74698 z" fill="#240508" stroke="#240508"/>
<path d="M606.54456,355.31454 L451.45187,357.76224 L454.81577,430.17416 z" fill="#1f0407" stroke="#1f0407"/>
<path d="M276.88354,236.25446 L247.43385,287.39172 L265.46753,276.48572 z" fill="#77101d" stroke="#77101d"/>
<path d="M265.46753,276.48572 L247.43385,287.39172 L318.13147,325.88596 z" fill="#6f0f1b" stroke="#6f0f1b"/>
<path d="M441.4075,126.56547 L409.51227,136.95572 L478.29846,197.12053 z" fill="#520b14" stroke="#520b14"/>
<path d="M478.29846,197.12053 L409.51227,136.95572 L455.63168,221.4767 z" fill="#4c0a12" stroke="#4c0a12"/>
<path d="M374.2303,197.60974 L271.33823,143.18744 L319.7387,224.40166 z" fill="#710f1b" stroke="#710f1b"/>
<path d="M270.0261,533.7521 L382.55853,491.27496 L299.20352,405.46155 z" fill="#480a11" stroke="#480a11"/>
<path d="M409.51227,136.95572 L399.45267,136.98257 L374.2303,197.60974 z" fill="#600d17" stroke="#600d17"/>
<path d="M597.60767,197.71898 L543.27234,180.19392 L528.8289,214.74698 z" fill="#2a050a" stroke="#2a050a"/>
<path d="M528.8289,214.74698 L543.27234,180.19392 L478.29846,197.12053 z" fill="#36070d" stroke="#36070d"/>
<path d="M476.6485,497.97192 L454.81577,430.17416 L424.99353,461.58746 z" fill="#220408" stroke="#220408"/>
<path d="M610.1714,357.92825 L606.54456,355.31454 L516.89026,517.0739 z" fill="#050001" stroke="#050001"/>
<path d="M382.55853,491.27496 L476.6485,497.97192 L424.99353,461.58746 z" fill="#260509" stroke="#260509"/>
<path d="M531.0143,147.44241 L441.4075,126.56547 L478.29846,197.12053 z" fill="#460911" stroke="#460911"/>
<path d="M411.7944,55.866245 L359.2212,87.29323 L399.45267,136.98257 z" fill="#6b0e1a" stroke="#6b0e1a"/>
<path d="M516.89026,517.0739 L606.54456,355.31454 L454.81577,430.17416 z" fill="#100204" stroke="#100204"/>
<path d="M606.54456,355.31454 L682.7486,291.19748 L590.2867,291.51553 z" fill="#050001" stroke="#050001"/>
<path d="M247.43385,287.39172 L241.73051,380.51242 L318.13147,325.88596 z" fill="#6c0f1a" stroke="#6c0f1a"/>
<path d="M291.44125,403.95328 L222.14465,480.04062 L299.20352,405.46155 z" fill="#5d0c16" stroke="#5d0c16"/>
<path d="M565.9059,114.394035 L531.0143,147.44241 L543.27234,180.19392 z" fill="#35070d" stroke="#35070d"/>
<path d="M543.27234,180.19392 L531.0143,147.44241 L478.29846,197.12053 z" fill="#39080e" stroke="#39080e"/>
<path d="M241.73051,380.51242 L247.27637,413.78082 L291.44125,403.95328 z" fill="#640e18" stroke="#640e18"/>
<path d="M474.29504,538.7121 L486.17136,516.9216 L476.6485,497.97192 z" fill="#120204" stroke="#120204"/>
<path d="M476.6485,497.97192 L516.89026,517.0739 L454.81577,430.17416 z" fill="#160305" stroke="#160305"/>
<path d="M590.2867,291.51553 L597.60767,197.71898 L528.8289,214.74698 z" fill="#200408" stroke="#200408"/>
<path d="M642.2735,257.1045 L597.60767,197.71898 L590.2867,291.51553 z" fill="#130204" stroke="#130204"/>
<path d="M486.17136,516.9216 L516.89026,517.0739 L476.6485,497.97192 z" fill="#0f0203" stroke="#0f0203"/>
<path d="M682.7486,291.19748 L642.2735,257.1045 L590.2867,291.51553 z" fill="#060001" stroke="#060001"/>
<path d="M447.88443,560.03107 L474.29504,538.7121 L476.6485,497.97192 z" fill="#140204" stroke="#140204"/>
<path d="M486.17136,516.9216 L474.29504,538.7121 L516.89026,517.0739 z" fill="#0d0103" stroke="#0d0103"/>
<path d="M359.2212,87.29323 L374.2303,197.60974 L399.45267,136.98257 z" fill="#680e19" stroke="#680e19"/>
<path d="M359.2212,87.29323 L271.33823,143.18744 L374.2303,197.60974 z" fill="#74101c" stroke="#74101c"/>
<path d="M276.88354,236.25446 L167.51875,253.88953 L247.43385,287.39172 z" fill="#82121f" stroke="#82121f"/>
<path d="M411.7944,55.866245 L399.45267,136.98257 L409.51227,136.95572 z" fill="#640d18" stroke="#640d18"/>
<path d="M411.7944,55.866245 L409.51227,136.95572 L441.4075,126.56547 z" fill="#600d17" stroke="#600d17"/>
<path d="M403.19803,580.7035 L447.88443,560.03107 L382.55853,491.27496 z" fill="#220408" stroke="#220408"/>
<path d="M382.55853,491.27496 L447.88443,560.03107 L476.6485,497.97192 z" fill="#1f0407" stroke="#1f0407"/>
<path d="M627.3671,558.2951 L644.888,489.7414 L516.89026,517.0739 z" fill="#000000" stroke="#000000"/>
<path d="M597.60767,197.71898 L565.9059,114.394035 L543.27234,180.19392 z" fill="#2c060a" stroke="#2c060a"/>
<path d="M531.0143,147.44241 L552.14734,96.71551 L441.4075,126.56547 z" fill="#440910" stroke="#440910"/>
<path d="M569.70917,97.11255 L565.9059,114.394035 L620.4348,117.44096 z" fill="#2f060b" stroke="#2f060b"/>
<path d="M565.9059,114.394035 L552.14734,96.71551 L531.0143,147.44241 z" fill="#38070d" stroke="#38070d"/>
<path d="M314.29727,44.048256 L239.23618,136.30685 L271.33823,143.18744 z" fill="#8b1322" stroke="#8b1322"/>
<path d="M271.33823,143.18744 L239.23618,136.30685 L276.88354,236.25446 z" fill="#851220" stroke="#851220"/>
<path d="M59.12675,419.74664 L247.27637,413.78082 L241.73051,380.51242 z" fill="#7a111e" stroke="#7a111e"/>
<path d="M59.12675,419.74664 L222.14465,480.04062 L247.27637,413.78082 z" fill="#77101d" stroke="#77101d"/>
<path d="M247.27637,413.78082 L222.14465,480.04062 L291.44125,403.95328 z" fill="#610d17" stroke="#610d17"/>
<path d="M145.27939,304.45563 L241.73051,380.51242 L247.43385,287.39172 z" fill="#7e111e" stroke="#7e111e"/>
<path d="M552.14734,96.71551 L411.7944,55.866245 L441.4075,126.56547 z" fill="#540b14" stroke="#540b14"/>
<path d="M359.2212,87.29323 L314.29727,44.048256 L271.33823,143.18744 z" fill="#82121f" stroke="#82121f"/>
<path d="M610.1714,357.92825 L682.7486,291.19748 L606.54456,355.31454 z" fill="#000000" stroke="#000000"/>
<path d="M620.4348,117.44096 L565.9059,114.394035 L597.60767,197.71898 z" fill="#270509" stroke="#270509"/>
<path d="M741.2433,309.04303 L682.7486,291.19748 L747.3001,391.80435 z" fill="#000000" stroke="#000000"/>
<path d="M190.28539,154.12971 L167.51875,253.88953 L276.88354,236.25446 z" fill="#8e1322" stroke="#8e1322"/>
<path d="M565.9059,114.394035 L569.70917,97.11255 L552.14734,96.71551 z" fill="#37070d" stroke="#37070d"/>
<path d="M552.14734,96.71551 L549.19763,24.919043 L411.7944,55.866245 z" fill="#4e0a13" stroke="#4e0a13"/>
<path d="M689.14594,245.76295 L597.60767,197.71898 L642.2735,257.1045 z" fill="#0b0102" stroke="#0b0102"/>
<path d="M292.68652,550.3706 L403.19803,580.7035 L382.55853,491.27496 z" fill="#32070c" stroke="#32070c"/>
<path d="M222.14465,480.04062 L270.0261,533.7521 L299.20352,405.46155 z" fill="#580c15" stroke="#580c15"/>
<path d="M270.0261,533.7521 L292.68652,550.3706 L382.55853,491.27496 z" fill="#410910" stroke="#410910"/>
<path d="M411.7944,55.866245 L344.9046,58.4704 L359.2212,87.29323 z" fill="#74101c" stroke="#74101c"/>
<path d="M222.14465,480.04062 L226.52444,507.46576 L270.0261,533.7521 z" fill="#5a0c16" stroke="#5a0c16"/>
<path d="M270.0261,533.7521 L256.55927,554.629 L292.68652,550.3706 z" fill="#4b0a12" stroke="#4b0a12"/>
<path d="M157.19868,577.41254 L226.52444,507.46576 L222.14465,480.04062 z" fill="#630d18" stroke="#630d18"/>
<path d="M682.7486,291.19748 L689.14594,245.76295 L642.2735,257.1045 z" fill="#000000" stroke="#000000"/>
<path d="M167.51875,253.88953 L145.27939,304.45563 L247.43385,287.39172 z" fill="#8b1322" stroke="#8b1322"/>
<path d="M689.14594,245.76295 L620.4348,117.44096 L597.60767,197.71898 z" fill="#140205" stroke="#140205"/>
<path d="M651.90967,524.7761 L644.888,489.7414 L627.3671,558.2951 z" fill="#000000" stroke="#000000"/>
<path d="M516.89026,517.0739 L644.888,489.7414 L610.1714,357.92825 z" fill="#000000" stroke="#000000"/>
<path d="M516.89026,517.0739 L474.29504,538.7121 L579.42065,586.64197 z" fill="#000000" stroke="#000000"/>
<path d="M118.13913,132.38301 L190.28539,154.12971 L126.99385,96.67274 z" fill="#af182a" stroke="#af182a"/>
<path d="M239.23618,136.30685 L190.28539,154.12971 L276.88354,236.25446 z" fill="#8d1322" stroke="#8d1322"/>
<path d="M167.51875,253.88953 L111.91888,286.80878 L145.27939,304.45563 z" fill="#991525" stroke="#991525"/>
<path d="M226.52444,507.46576 L256.55927,554.629 L270.0261,533.7521 z" fill="#530b14" stroke="#530b14"/>
<path d="M292.68652,550.3706 L290.86777,592.23914 L403.19803,580.7035 z" fill="#36070d" stroke="#36070d"/>
<path d="M313.36572,6.2132735 L314.29727,44.048256 L344.9046,58.4704 z" fill="#871221" stroke="#871221"/>
<path d="M344.9046,58.4704 L314.29727,44.048256 L359.2212,87.29323 z" fill="#7f111f" stroke="#7f111f"/>
<path d="M266.79443,582.5249 L290.86777,592.23914 L292.68652,550.3706 z" fill="#430910" stroke="#430910"/>
<path d="M157.19868,577.41254 L266.79443,582.5249 L256.55927,554.629 z" fill="#550b14" stroke="#550b14"/>
<path d="M256.55927,554.629 L266.79443,582.5249 L292.68652,550.3706 z" fill="#490a11" stroke="#490a11"/>
<path d="M579.42065,586.64197 L474.29504,538.7121 L447.88443,560.03107 z" fill="#050001" stroke="#050001"/>
<path d="M747.3001,391.80435 L682.7486,291.19748 L610.1714,357.92825 z" fill="#000000" stroke="#000000"/>
<path d="M682.7486,291.19748 L741.55817,273.17972 L689.14594,245.76295 z" fill="#000000" stroke="#000000"/>
<path d="M403.19803,580.7035 L579.42065,586.64197 L447.88443,560.03107 z" fill="#0a0102" stroke="#0a0102"/>
<path d="M290.86777,592.23914 L579.42065,586.64197 L403.19803,580.7035 z" fill="#180305" stroke="#180305"/>
<path d="M118.13913,132.38301 L111.91888,286.80878 L167.51875,253.88953 z" fill="#a41628" stroke="#a41628"/>
<path d="M145.27939,304.45563 L59.12675,419.74664 L241.73051,380.51242 z" fill="#8a1321" stroke="#8a1321"/>
<path d="M579.42065,586.64197 L627.3671,558.2951 L516.89026,517.0739 z" fill="#000000" stroke="#000000"/>
<path d="M620.4348,117.44096 L549.19763,24.919043 L569.70917,97.11255 z" fill="#35070d" stroke="#35070d"/>
<path d="M569.70917,97.11255 L549.19763,24.919043 L552.14734,96.71551 z" fill="#3d080e" stroke="#3d080e"/>
<path d="M411.7944,55.866245 L313.36572,6.2132735 L344.9046,58.4704 z" fill="#7d111e" stroke="#7d111e"/>
<path d="M747.3001,391.80435 L610.1714,357.92825 L644.888,489.7414 z" fill="#000000" stroke="#000000"/>
<path d="M689.14594,245.76295 L724.66595,109.22336 L620.4348,117.44096 z" fill="#0c0103" stroke="#0c0103"/>
<path d="M741.2433,309.04303 L741.55817,273.17972 L682.7486,291.19748 z" fill="#000000" stroke="#000000"/>
<path d="M620.4348,117.44096 L724.66595,109.22336 L549.19763,24.919043 z" fill="#250509" stroke="#250509"/>
<path d="M314.29727,44.048256 L230.80576,13.3742895 L239.23618,136.30685 z" fill="#951424" stroke="#951424"/>
<path d="M549.19763,24.919043 L313.36572,6.2132735 L411.7944,55.866245 z" fill="#6a0e1a" stroke="#6a0e1a"/>
<path d="M761.28796,511.0986 L747.3001,391.80435 L644.888,489.7414 z" fill="#000000" stroke="#000000"/>
<path d="M772.42725,166.55795 L766.2517,177.15517 L741.55817,273.17972 z" fill="#000000" stroke="#000000"/>
<path d="M190.28539,154.12971 L118.13913,132.38301 L167.51875,253.88953 z" fill="#a31627" stroke="#a31627"/>
<path d="M126.99385,96.67274 L190.28539,154.12971 L141.91077,59.737038 z" fill="#b0182b" stroke="#b0182b"/>
<path d="M313.36572,6.2132735 L230.80576,13.3742895 L314.29727,44.048256 z" fill="#951424" stroke="#951424"/>
<path d="M766.2517,177.15517 L724.66595,109.22336 L689.14594,245.76295 z" fill="#000000" stroke="#000000"/>
<path d="M141.91077,59.737038 L190.28539,154.12971 L239.23618,136.30685 z" fill="#a31627" stroke="#a31627"/>
<path d="M65.01677,135.54222 L111.91888,286.80878 L118.13913,132.38301 z" fill="#b4192c" stroke="#b4192c"/>
<path d="M65.01677,135.54222 L53.800346,336.49078 L111.91888,286.80878 z" fill="#b0182b" stroke="#b0182b"/>
<path d="M111.91888,286.80878 L53.800346,336.49078 L145.27939,304.45563 z" fill="#a01627" stroke="#a01627"/>
<path d="M226.52444,507.46576 L157.19868,577.41254 L256.55927,554.629 z" fill="#5c0c16" stroke="#5c0c16"/>
<path d="M772.42725,166.55795 L741.55817,273.17972 L741.2433,309.04303 z" fill="#000000" stroke="#000000"/>
<path d="M741.55817,273.17972 L766.2517,177.15517 L689.14594,245.76295 z" fill="#000000" stroke="#000000"/>
<path d="M266.79443,582.5249 L157.19868,577.41254 L290.86777,592.23914 z" fill="#4f0b13" stroke="#4f0b13"/>
<path d="M104.512024,571.3759 L157.19868,577.41254 L222.14465,480.04062 z" fill="#6c0f1a" stroke="#6c0f1a"/>
<path d="M53.800346,336.49078 L59.12675,419.74664 L145.27939,304.45563 z" fill="#9f1626" stroke="#9f1626"/>
<path d="M747.3001,391.80435 L772.42725,166.55795 L741.2433,309.04303 z" fill="#000000" stroke="#000000"/>
<path d="M766.2517,177.15517 L772.42725,166.55795 L724.66595,109.22336 z" fill="#000000" stroke="#000000"/>
<path d="M230.80576,13.3742895 L141.91077,59.737038 L239.23618,136.30685 z" fill="#a61728" stroke="#a61728"/>
<path d="M700.9676,580.0969 L733.65594,538.94855 L651.90967,524.7761 z" fill="#000000" stroke="#000000"/>
<path d="M651.90967,524.7761 L733.65594,538.94855 L644.888,489.7414 z" fill="#000000" stroke="#000000"/>
<path d="M747.3001,391.80435 L796.84894,100.57242 L772.42725,166.55795 z" fill="#000000" stroke="#000000"/>
<path d="M700.9676,580.0969 L651.90967,524.7761 L627.3671,558.2951 z" fill="#000000" stroke="#000000"/>
<path d="M579.42065,586.64197 L700.9676,580.0969 L627.3671,558.2951 z" fill="#000000" stroke="#000000"/>
<path d="M700.9676,580.0969 L761.28796,511.0986 L733.65594,538.94855 z" fill="#000000" stroke="#000000"/>
<path d="M733.65594,538.94855 L761.28796,511.0986 L644.888,489.7414 z" fill="#000000" stroke="#000000"/>
<path d="M230.80576,13.3742895 L158.11961,25.256113 L141.91077,59.737038 z" fill="#b3192b" stroke="#b3192b"/>
<path d="M73.50165,14.66565 L126.99385,96.67274 L141.91077,59.737038 z" fill="#c21b2f" stroke="#c21b2f"/>
<path d="M73.50165,14.66565 L65.01677,135.54222 L126.99385,96.67274 z" fill="#c61b30" stroke="#c61b30"/>
<path d="M126.99385,96.67274 L65.01677,135.54222 L118.13913,132.38301 z" fill="#bc1a2e" stroke="#bc1a2e"/>
<path d="M53.731323,505.5343 L104.512024,571.3759 L222.14465,480.04062 z" fill="#7a111d" stroke="#7a111d"/>
<path d="M19.788687,465.94797 L50.357784,487.1996 L59.12675,419.74664 z" fill="#9c1526" stroke="#9c1526"/>
<path d="M59.12675,419.74664 L50.357784,487.1996 L222.14465,480.04062 z" fill="#871221" stroke="#871221"/>
<path d="M50.357784,487.1996 L53.731323,505.5343 L222.14465,480.04062 z" fill="#841220" stroke="#841220"/>
<path d="M53.800346,336.49078 L19.788687,465.94797 L59.12675,419.74664 z" fill="#a31628" stroke="#a31628"/>
<path d="M50.357784,487.1996 L19.788687,465.94797 L53.731323,505.5343 z" fill="#981525" stroke="#981525"/>
<path d="M53.731323,505.5343 L19.788687,465.94797 L104.512024,571.3759 z" fill="#8f1323" stroke="#8f1323"/>
<path d="M65.01677,135.54222 L19.788687,465.94797 L53.800346,336.49078 z" fill="#b0182b" stroke="#b0182b"/>
<path d="M761.28796,511.0986 L796.84894,100.57242 L747.3001,391.80435 z" fill="#000000" stroke="#000000"/>
<path d="M772.42725,166.55795 L796.84894,100.57242 L724.66595,109.22336 z" fill="#000000" stroke="#000000"/>
<path d="M724.66595,109.22336 L784.5171,18.223598 L549.19763,24.919043 z" fill="#1a0306" stroke="#1a0306"/>
<path d="M796.84894,100.57242 L796.3421,85.60733 L724.66595,109.22336 z" fill="#000000" stroke="#000000"/>
<path d="M230.80576,13.3742895 L73.50165,14.66565 L158.11961,25.256113 z" fill="#bc1a2e" stroke="#bc1a2e"/>
<path d="M158.11961,25.256113 L73.50165,14.66565 L141.91077,59.737038 z" fill="#c31b2f" stroke="#c31b2f"/>
<path d="M65.01677,135.54222 L73.50165,14.66565 L19.788687,465.94797 z" fill="#be1a2e" stroke="#be1a2e"/>
<path d="M313.36572,6.2132735 L73.50165,14.66565 L230.80576,13.3742895 z" fill="#ae182a" stroke="#ae182a"/>
<path d="M796.3421,85.60733 L784.5171,18.223598 L724.66595,109.22336 z" fill="#000000" stroke="#000000"/>
<path d="M549.19763,24.919043 L784.5171,18.223598 L313.36572,6.2132735 z" fill="#470a11" stroke="#470a11"/>
</g>
</svg>