<svg height="1080" width="1920" xmlns="http://www.w3.org/2000/svg">
<g>
<path d="M947.41455,496.8103 L920.9569,484.9219 L932.83203,636.2836 z" fill="#afcfe4" stroke="#afcfe4"/>
<path d="M920.9569,484.9219 L799.3687,606.36694 L932.83203,636.2836 z" fill="#abcde3" stroke="#abcde3"/>
<path d="M799.3687,606.36694 L811.6516,658.5916 L932.83203,636.2836 z" fill="#aacde3" stroke="#aacde3"/>
<path d="M811.6516,658.5916 L868.5612,721.40533 L932.83203,636.2836 z" fill="#afcfe5" stroke="#afcfe5"/>
<path d="M1011.87494,783.7681 L1048.3035,640.81616 L932.83203,636.2836 z" fill="#bed8e9" stroke="#bed8e9"/>
<path d="M932.83203,636.2836 L1048.3035,640.81616 L947.41455,496.8103 z" fill="#b6d4e7" stroke="#b6d4e7"/>
<path d="M761.9949,404.65823 L734.86334,614.20966 L799.3687,606.36694 z" fill="#9cc4de" stroke="#9cc4de"/>
<path d="M799.3687,606.36694 L745.46405,659.7398 L811.6516,658.5916 z" fill="#a4c9e1" stroke="#a4c9e1"/>
<path d="M811.6516,658.5916 L785.8862,773.1141 L868.5612,721.40533 z" fill="#accee4" stroke="#accee4"/>
<path d="M734.86334,614.20966 L745.46405,659.7398 L799.3687,606.36694 z" fill="#a0c6e0" stroke="#a0c6e0"/>
<path d="M947.0642,316.37262 L761.9949,404.65823 L920.9569,484.9219 z" fill="#a1c7e0" stroke="#a1c7e0"/>
<path d="M920.9569,484.9219 L761.9949,404.65823 L799.3687,606.36694 z" fill="#a1c7e0" stroke="#a1c7e0"/>
<path d="M1129.0482,790.999 L1105.1737,632.20886 L1048.3035,640.81616 z" fill="#c9dfed" stroke="#c9dfed"/>
<path d="M1048.3035,640.81616 L1146.8431,474.77112 L947.41455,496.8103 z" fill="#bbd7e8" stroke="#bbd7e8"/>
<path d="M745.46405,659.7398 L785.8862,773.1141 L811.6516,658.5916 z" fill="#a6cae2" stroke="#a6cae2"/>
<path d="M868.5612,721.40533 L1011.87494,783.7681 L932.83203,636.2836 z" fill="#b9d5e8" stroke="#b9d5e8"/>
<path d="M906.64325,903.34015 L1011.87494,783.7681 L868.5612,721.40533 z" fill="#bdd8e9" stroke="#bdd8e9"/>
<path d="M1064.4885,356.5006 L947.0642,316.37262 L947.41455,496.8103 z" fill="#accee4" stroke="#accee4"/>
<path d="M947.41455,496.8103 L947.0642,316.37262 L920.9569,484.9219 z" fill="#a9cce3" stroke="#a9cce3"/>
<path d="M1105.1737,632.20886 L1146.8431,474.77112 L1048.3035,640.81616 z" fill="#c4dceb" stroke="#c4dceb"/>
<path d="M1146.8431,474.77112 L1064.4885,356.5006 L947.41455,496.8103 z" fill="#b7d4e7" stroke="#b7d4e7"/>
<path d="M785.41223,296.79282 L736.8696,357.4719 L761.9949,404.65823 z" fill="#91bedb" stroke="#91bedb"/>
<path d="M588.7527,521.31165 L625.0115,588.93994 L734.86334,614.20966 z" fill="#91bddb" stroke="#91bddb"/>
<path d="M588.7527,521.31165 L734.86334,614.20966 L761.9949,404.65823 z" fill="#93bedb" stroke="#93bedb"/>
<path d="M734.86334,614.20966 L625.0115,588.93994 L745.46405,659.7398 z" fill="#99c2dd" stroke="#99c2dd"/>
<path d="M745.46405,659.7398 L668.70416,747.12164 L785.8862,773.1141 z" fill="#a3c8e0" stroke="#a3c8e0"/>
<path d="M785.41223,296.79282 L713.83655,350.6941 L736.8696,357.4719 z" fill="#8ebcda" stroke="#8ebcda"/>
<path d="M736.8696,357.4719 L713.83655,350.6941 L761.9949,404.65823 z" fill="#8fbdda" stroke="#8fbdda"/>
<path d="M947.0642,316.37262 L785.41223,296.79282 L761.9949,404.65823 z" fill="#98c2dd" stroke="#98c2dd"/>
<path d="M596.35425,614.4072 L668.70416,747.12164 L745.46405,659.7398 z" fill="#99c2dd" stroke="#99c2dd"/>
<path d="M1027.283,273.08722 L947.02484,265.88858 L947.0642,316.37262 z" fill="#a5c9e1" stroke="#a5c9e1"/>
<path d="M947.0642,316.37262 L816.6871,248.81946 L785.41223,296.79282 z" fill="#97c1dd" stroke="#97c1dd"/>
<path d="M1252.7572,655.0685 L1210.1062,530.3992 L1105.1737,632.20886 z" fill="#cfe2ef" stroke="#cfe2ef"/>
<path d="M1105.1737,632.20886 L1210.1062,530.3992 L1146.8431,474.77112 z" fill="#c8deed" stroke="#c8deed"/>
<path d="M1146.8431,474.77112 L1257.2594,283.44418 L1064.4885,356.5006 z" fill="#bed8e9" stroke="#bed8e9"/>
<path d="M588.7527,521.31165 L596.35425,614.4072 L625.0115,588.93994 z" fill="#8cbad9" stroke="#8cbad9"/>
<path d="M625.0115,588.93994 L596.35425,614.4072 L745.46405,659.7398 z" fill="#94bfdc" stroke="#94bfdc"/>
<path d="M1204.5378,223.63425 L1027.283,273.08722 L1064.4885,356.5006 z" fill="#b3d2e6" stroke="#b3d2e6"/>
<path d="M1064.4885,356.5006 L1027.283,273.08722 L947.0642,316.37262 z" fill="#abcde3" stroke="#abcde3"/>
<path d="M713.83655,350.6941 L588.7527,521.31165 L761.9949,404.65823 z" fill="#8dbbd9" stroke="#8dbbd9"/>
<path d="M1161.3744,875.25464 L1129.0482,790.999 L1011.87494,783.7681 z" fill="#d1e3f0" stroke="#d1e3f0"/>
<path d="M1011.87494,783.7681 L1129.0482,790.999 L1048.3035,640.81616 z" fill="#c8deed" stroke="#c8deed"/>
<path d="M644.75183,842.48376 L798.7149,869.7274 L785.8862,773.1141 z" fill="#a9cce3" stroke="#a9cce3"/>
<path d="M785.8862,773.1141 L798.7149,869.7274 L868.5612,721.40533 z" fill="#b0d0e5" stroke="#b0d0e5"/>
<path d="M810.52167,224.02942 L816.6871,248.81946 L851.534,172.26843 z" fill="#91bddb" stroke="#91bddb"/>
<path d="M947.02484,265.88858 L816.6871,248.81946 L947.0642,316.37262 z" fill="#9dc4de" stroke="#9dc4de"/>
<path d="M640.23376,193.15002 L596.54846,235.57608 L713.83655,350.6941 z" fill="#7fb3d5" stroke="#7fb3d5"/>
<path d="M1129.0482,790.999 L1150.8286,784.3444 L1105.1737,632.20886 z" fill="#cfe2ef" stroke="#cfe2ef"/>
<path d="M798.7149,869.7274 L906.64325,903.34015 L868.5612,721.40533 z" fill="#b6d4e7" stroke="#b6d4e7"/>
<path d="M1129.0482,790.999 L1161.3744,875.25464 L1150.8286,784.3444 z" fill="#d6e6f1" stroke="#d6e6f1"/>
<path d="M851.534,172.26843 L816.6871,248.81946 L947.02484,265.88858 z" fill="#96c1dc" stroke="#96c1dc"/>
<path d="M816.6871,248.81946 L810.52167,224.02942 L785.41223,296.79282 z" fill="#90bdda" stroke="#90bdda"/>
<path d="M1150.8286,784.3444 L1252.7572,655.0685 L1105.1737,632.20886 z" fill="#d1e4f0" stroke="#d1e4f0"/>
<path d="M578.25024,772.5232 L644.75183,842.48376 L668.70416,747.12164 z" fill="#9bc3de" stroke="#9bc3de"/>
<path d="M668.70416,747.12164 L644.75183,842.48376 L785.8862,773.1141 z" fill="#a2c8e0" stroke="#a2c8e0"/>
<path d="M827.4812,1015.1639 L981.6794,1012.5483 L906.64325,903.34015 z" fill="#c4dceb" stroke="#c4dceb"/>
<path d="M596.35425,614.4072 L578.25024,772.5232 L668.70416,747.12164 z" fill="#95c0dc" stroke="#95c0dc"/>
<path d="M382.42148,684.7951 L578.25024,772.5232 L596.35425,614.4072 z" fill="#89b9d8" stroke="#89b9d8"/>
<path d="M952.9297,3.5286546 L851.534,172.26843 L947.02484,265.88858 z" fill="#97c1dd" stroke="#97c1dd"/>
<path d="M1242.688,840.0403 L1255.1858,741.4286 L1150.8286,784.3444 z" fill="#dceaf3" stroke="#dceaf3"/>
<path d="M1150.8286,784.3444 L1255.1858,741.4286 L1252.7572,655.0685 z" fill="#d9e8f2" stroke="#d9e8f2"/>
<path d="M1255.1858,741.4286 L1281.5941,705.4492 L1252.7572,655.0685 z" fill="#dceaf3" stroke="#dceaf3"/>
<path d="M1427.587,501.11606 L1294.7704,383.75076 L1210.1062,530.3992 z" fill="#d5e6f1" stroke="#d5e6f1"/>
<path d="M981.6794,1012.5483 L1161.3744,875.25464 L1011.87494,783.7681 z" fill="#cfe3ef" stroke="#cfe3ef"/>
<path d="M1255.1858,741.4286 L1272.7117,747.6266 L1281.5941,705.4492 z" fill="#dfecf4" stroke="#dfecf4"/>
<path d="M1242.688,840.0403 L1272.7117,747.6266 L1255.1858,741.4286 z" fill="#e0ecf4" stroke="#e0ecf4"/>
<path d="M1427.587,501.11606 L1210.1062,530.3992 L1252.7572,655.0685 z" fill="#d8e8f2" stroke="#d8e8f2"/>
<path d="M1210.1062,530.3992 L1294.7704,383.75076 L1146.8431,474.77112 z" fill="#cadfed" stroke="#cadfed"/>
<path d="M1027.283,273.08722 L952.9297,3.5286546 L947.02484,265.88858 z" fill="#9fc6df" stroke="#9fc6df"/>
<path d="M1161.3744,875.25464 L1242.688,840.0403 L1150.8286,784.3444 z" fill="#dbe9f3" stroke="#dbe9f3"/>
<path d="M640.23376,193.15002 L713.83655,350.6941 L785.41223,296.79282 z" fill="#88b8d8" stroke="#88b8d8"/>
<path d="M713.83655,350.6941 L596.54846,235.57608 L588.7527,521.31165 z" fill="#84b6d6" stroke="#84b6d6"/>
<path d="M588.7527,521.31165 L382.42148,684.7951 L596.35425,614.4072 z" fill="#85b6d7" stroke="#85b6d7"/>
<path d="M640.23376,193.15002 L785.41223,296.79282 L810.52167,224.02942 z" fill="#89b9d8" stroke="#89b9d8"/>
<path d="M1294.7704,383.75076 L1257.2594,283.44418 L1146.8431,474.77112 z" fill="#c7deec" stroke="#c7deec"/>
<path d="M851.534,172.26843 L640.23376,193.15002 L810.52167,224.02942 z" fill="#89b9d8" stroke="#89b9d8"/>
<path d="M1240.2231,256.66626 L1204.5378,223.63425 L1064.4885,356.5006 z" fill="#bad6e8" stroke="#bad6e8"/>
<path d="M1257.2594,283.44418 L1240.2231,256.66626 L1064.4885,356.5006 z" fill="#bdd8e9" stroke="#bdd8e9"/>
<path d="M906.64325,903.34015 L981.6794,1012.5483 L1011.87494,783.7681 z" fill="#c6ddec" stroke="#c6ddec"/>
<path d="M1161.3744,875.25464 L1227.8356,919.09406 L1242.688,840.0403 z" fill="#e0edf5" stroke="#e0edf5"/>
<path d="M827.4812,1015.1639 L906.64325,903.34015 L798.7149,869.7274 z" fill="#bad6e8" stroke="#bad6e8"/>
<path d="M644.1153,1023.0026 L827.4812,1015.1639 L798.7149,869.7274 z" fill="#b3d2e6" stroke="#b3d2e6"/>
<path d="M981.6794,1012.5483 L1160.4291,947.8362 L1161.3744,875.25464 z" fill="#d8e8f2" stroke="#d8e8f2"/>
<path d="M1182.6964,100.774254 L1146.4324,160.31201 L1262.707,120.5793 z" fill="#b5d3e6" stroke="#b5d3e6"/>
<path d="M1204.5378,223.63425 L1146.4324,160.31201 L1027.283,273.08722 z" fill="#b2d1e6" stroke="#b2d1e6"/>
<path d="M548.94714,214.34651 L553.5103,228.17487 L596.54846,235.57608 z" fill="#74acd1" stroke="#74acd1"/>
<path d="M596.54846,235.57608 L553.5103,228.17487 L588.7527,521.31165 z" fill="#7bb1d4" stroke="#7bb1d4"/>
<path d="M1160.4291,947.8362 L1227.8356,919.09406 L1161.3744,875.25464 z" fill="#dfecf4" stroke="#dfecf4"/>
<path d="M1306.7717,846.7711 L1349.5804,772.149 L1272.7117,747.6266 z" fill="#e6f0f7" stroke="#e6f0f7"/>
<path d="M1306.7717,846.7711 L1272.7117,747.6266 L1242.688,840.0403 z" fill="#e4eff6" stroke="#e4eff6"/>
<path d="M1272.7117,747.6266 L1349.5804,772.149 L1281.5941,705.4492 z" fill="#e3eef5" stroke="#e3eef5"/>
<path d="M1281.5941,705.4492 L1427.587,501.11606 L1252.7572,655.0685 z" fill="#deebf4" stroke="#deebf4"/>
<path d="M1227.8356,919.09406 L1306.7717,846.7711 L1242.688,840.0403 z" fill="#e5f0f6" stroke="#e5f0f6"/>
<path d="M640.23376,193.15002 L548.94714,214.34651 L596.54846,235.57608 z" fill="#77aed2" stroke="#77aed2"/>
<path d="M316.01688,603.9845 L382.42148,684.7951 L588.7527,521.31165 z" fill="#7ab0d3" stroke="#7ab0d3"/>
<path d="M1160.4291,947.8362 L1247.0227,950.4943 L1227.8356,919.09406 z" fill="#e4eff6" stroke="#e4eff6"/>
<path d="M1227.8356,919.09406 L1247.0227,950.4943 L1306.7717,846.7711 z" fill="#e7f1f7" stroke="#e7f1f7"/>
<path d="M1201.2915,1038.0837 L1247.0227,950.4943 L1160.4291,947.8362 z" fill="#e5eff6" stroke="#e5eff6"/>
<path d="M827.4812,1015.1639 L1065.5283,1062.2761 L981.6794,1012.5483 z" fill="#cde1ee" stroke="#cde1ee"/>
<path d="M981.6794,1012.5483 L1065.5283,1062.2761 L1160.4291,947.8362 z" fill="#d8e8f2" stroke="#d8e8f2"/>
<path d="M465.2395,900.9602 L644.1153,1023.0026 L644.75183,842.48376 z" fill="#9dc5df" stroke="#9dc5df"/>
<path d="M644.75183,842.48376 L644.1153,1023.0026 L798.7149,869.7274 z" fill="#a9cce2" stroke="#a9cce2"/>
<path d="M827.4812,1015.1639 L644.1153,1023.0026 L1065.5283,1062.2761 z" fill="#c0daea" stroke="#c0daea"/>
<path d="M1440.4146,507.11646 L1427.587,501.11606 L1281.5941,705.4492 z" fill="#e3eef5" stroke="#e3eef5"/>
<path d="M1294.7704,383.75076 L1426.7118,170.5965 L1257.2594,283.44418 z" fill="#cce0ee" stroke="#cce0ee"/>
<path d="M1146.4324,160.31201 L1204.5378,223.63425 L1262.707,120.5793 z" fill="#b8d5e7" stroke="#b8d5e7"/>
<path d="M350.69516,449.33713 L588.7527,521.31165 L553.5103,228.17487 z" fill="#76aed2" stroke="#76aed2"/>
<path d="M578.25024,772.5232 L465.2395,900.9602 L644.75183,842.48376 z" fill="#96c0dc" stroke="#96c0dc"/>
<path d="M1190.7455,85.13873 L1182.6964,100.774254 L1262.707,120.5793 z" fill="#b5d3e7" stroke="#b5d3e7"/>
<path d="M1146.4324,160.31201 L952.9297,3.5286546 L1027.283,273.08722 z" fill="#a5c9e1" stroke="#a5c9e1"/>
<path d="M851.534,172.26843 L952.9297,3.5286546 L640.23376,193.15002 z" fill="#8ab9d8" stroke="#8ab9d8"/>
<path d="M1204.5378,223.63425 L1240.2231,256.66626 L1262.707,120.5793 z" fill="#bdd8e9" stroke="#bdd8e9"/>
<path d="M1529.4025,610.8664 L1440.4146,507.11646 L1281.5941,705.4492 z" fill="#e8f1f7" stroke="#e8f1f7"/>
<path d="M1427.587,501.11606 L1516.6305,453.91013 L1294.7704,383.75076 z" fill="#dfecf4" stroke="#dfecf4"/>
<path d="M644.1153,1023.0026 L1103.1417,1070.1727 L1065.5283,1062.2761 z" fill="#cce0ee" stroke="#cce0ee"/>
<path d="M1065.5283,1062.2761 L1103.1417,1070.1727 L1160.4291,947.8362 z" fill="#ddebf4" stroke="#ddebf4"/>
<path d="M376.32278,779.7952 L465.2395,900.9602 L578.25024,772.5232 z" fill="#8bbad9" stroke="#8bbad9"/>
<path d="M1262.707,120.5793 L1240.2231,256.66626 L1426.7118,170.5965 z" fill="#c5dcec" stroke="#c5dcec"/>
<path d="M1182.6964,100.774254 L952.9297,3.5286546 L1146.4324,160.31201 z" fill="#a7cbe2" stroke="#a7cbe2"/>
<path d="M1190.7455,85.13873 L952.9297,3.5286546 L1182.6964,100.774254 z" fill="#a8cbe2" stroke="#a8cbe2"/>
<path d="M382.50974,96.83865 L392.86978,135.60051 L548.94714,214.34651 z" fill="#62a2cb" stroke="#62a2cb"/>
<path d="M1103.1417,1070.1727 L1201.2915,1038.0837 L1160.4291,947.8362 z" fill="#e2eef5" stroke="#e2eef5"/>
<path d="M1388.8756,1011.5149 L1445.1637,831.6521 L1306.7717,846.7711 z" fill="#f4f8fb" stroke="#f4f8fb"/>
<path d="M1306.7717,846.7711 L1445.1637,831.6521 L1349.5804,772.149 z" fill="#eef5f9" stroke="#eef5f9"/>
<path d="M340.89505,346.0639 L350.69516,449.33713 L553.5103,228.17487 z" fill="#6aa6ce" stroke="#6aa6ce"/>
<path d="M355.44855,750.30585 L376.32278,779.7952 L382.42148,684.7951 z" fill="#7bb0d3" stroke="#7bb0d3"/>
<path d="M382.42148,684.7951 L376.32278,779.7952 L578.25024,772.5232 z" fill="#84b6d6" stroke="#84b6d6"/>
<path d="M1426.7118,170.5965 L1240.2231,256.66626 L1257.2594,283.44418 z" fill="#c7deed" stroke="#c7deed"/>
<path d="M321.82642,761.2506 L355.44855,750.30585 L382.42148,684.7951 z" fill="#79afd3" stroke="#79afd3"/>
<path d="M350.69516,449.33713 L316.01688,603.9845 L588.7527,521.31165 z" fill="#74add1" stroke="#74add1"/>
<path d="M548.94714,214.34651 L340.89505,346.0639 L553.5103,228.17487 z" fill="#6da8cf" stroke="#6da8cf"/>
<path d="M135.17874,655.40936 L232.33017,675.78107 L316.01688,603.9845 z" fill="#66a4cd" stroke="#66a4cd"/>
<path d="M274.2859,884.14026 L448.26804,958.0287 L465.2395,900.9602 z" fill="#88b8d8" stroke="#88b8d8"/>
<path d="M465.2395,900.9602 L448.26804,958.0287 L644.1153,1023.0026 z" fill="#98c2dd" stroke="#98c2dd"/>
<path d="M274.2859,884.14026 L465.2395,900.9602 L376.32278,779.7952 z" fill="#82b4d6" stroke="#82b4d6"/>
<path d="M1262.707,120.5793 L1219.9905,48.579227 L1190.7455,85.13873 z" fill="#b6d3e7" stroke="#b6d3e7"/>
<path d="M1190.7455,85.13873 L1219.9905,48.579227 L952.9297,3.5286546 z" fill="#a8cbe2" stroke="#a8cbe2"/>
<path d="M1388.8756,1011.5149 L1306.7717,846.7711 L1247.0227,950.4943 z" fill="#eff5f9" stroke="#eff5f9"/>
<path d="M1349.5804,772.149 L1529.4025,610.8664 L1281.5941,705.4492 z" fill="#eaf2f8" stroke="#eaf2f8"/>
<path d="M232.33017,675.78107 L321.82642,761.2506 L382.42148,684.7951 z" fill="#73acd1" stroke="#73acd1"/>
<path d="M355.44855,750.30585 L321.82642,761.2506 L376.32278,779.7952 z" fill="#7ab0d3" stroke="#7ab0d3"/>
<path d="M1529.4025,610.8664 L1516.6305,453.91013 L1440.4146,507.11646 z" fill="#ecf4f9" stroke="#ecf4f9"/>
<path d="M1440.4146,507.11646 L1516.6305,453.91013 L1427.587,501.11606 z" fill="#e7f0f7" stroke="#e7f0f7"/>
<path d="M1262.707,120.5793 L1407.865,11.365426 L1219.9905,48.579227 z" fill="#bcd7e9" stroke="#bcd7e9"/>
<path d="M1534.215,715.0695 L1529.4025,610.8664 L1349.5804,772.149 z" fill="#f3f8fb" stroke="#f3f8fb"/>
<path d="M392.86978,135.60051 L299.2256,328.14758 L340.89505,346.0639 z" fill="#5e9fca" stroke="#5e9fca"/>
<path d="M340.89505,346.0639 L299.2256,328.14758 L350.69516,449.33713 z" fill="#62a2cb" stroke="#62a2cb"/>
<path d="M316.01688,603.9845 L232.33017,675.78107 L382.42148,684.7951 z" fill="#70aad0" stroke="#70aad0"/>
<path d="M392.86978,135.60051 L340.89505,346.0639 L548.94714,214.34651 z" fill="#65a3cc" stroke="#65a3cc"/>
<path d="M1445.1637,831.6521 L1534.215,715.0695 L1349.5804,772.149 z" fill="#f4f9fb" stroke="#f4f9fb"/>
<path d="M1473.7397,181.64125 L1426.7118,170.5965 L1294.7704,383.75076 z" fill="#d2e4f0" stroke="#d2e4f0"/>
<path d="M1201.2915,1038.0837 L1388.8756,1011.5149 L1247.0227,950.4943 z" fill="#eff5f9" stroke="#eff5f9"/>
<path d="M1578.9064,898.2844 L1602.8851,698.55457 L1534.215,715.0695 z" fill="#ffffff" stroke="#ffffff"/>
<path d="M1543.545,1064.8081 L1388.8756,1011.5149 L1201.2915,1038.0837 z" fill="#fcfdfe" stroke="#fcfdfe"/>
<path d="M382.50974,96.83865 L548.94714,214.34651 L640.23376,193.15002 z" fill="#6ca8cf" stroke="#6ca8cf"/>
<path d="M135.17874,655.40936 L316.01688,603.9845 L105.47149,440.17212 z" fill="#5d9fca" stroke="#5d9fca"/>
<path d="M321.82642,761.2506 L263.5789,816.0405 L376.32278,779.7952 z" fill="#78afd3" stroke="#78afd3"/>
<path d="M232.33017,675.78107 L263.5789,816.0405 L321.82642,761.2506 z" fill="#71aad0" stroke="#71aad0"/>
<path d="M1574.8969,348.00247 L1473.7397,181.64125 L1294.7704,383.75076 z" fill="#dbe9f3" stroke="#dbe9f3"/>
<path d="M1426.7118,170.5965 L1407.865,11.365426 L1262.707,120.5793 z" fill="#c6ddec" stroke="#c6ddec"/>
<path d="M952.9297,3.5286546 L382.50974,96.83865 L640.23376,193.15002 z" fill="#77aed2" stroke="#77aed2"/>
<path d="M392.86978,135.60051 L143.09438,148.4922 L299.2256,328.14758 z" fill="#5399c6" stroke="#5399c6"/>
<path d="M1636.9412,541.83124 L1590.892,451.66348 L1516.6305,453.91013 z" fill="#f4f8fb" stroke="#f4f8fb"/>
<path d="M1516.6305,453.91013 L1574.8969,348.00247 L1294.7704,383.75076 z" fill="#e1edf5" stroke="#e1edf5"/>
<path d="M1636.9412,541.83124 L1516.6305,453.91013 L1529.4025,610.8664 z" fill="#f4f8fb" stroke="#f4f8fb"/>
<path d="M276.81866,944.32874 L274.2859,884.14026 L43.88505,948.6903 z" fill="#72abd1" stroke="#72abd1"/>
<path d="M263.5789,816.0405 L274.2859,884.14026 L376.32278,779.7952 z" fill="#79afd3" stroke="#79afd3"/>
<path d="M1598.1161,382.35663 L1574.8969,348.00247 L1516.6305,453.91013 z" fill="#edf4f9" stroke="#edf4f9"/>
<path d="M1534.215,715.0695 L1602.8851,698.55457 L1529.4025,610.8664 z" fill="#fbfdfe" stroke="#fbfdfe"/>
<path d="M1578.9064,898.2844 L1534.215,715.0695 L1445.1637,831.6521 z" fill="#ffffff" stroke="#ffffff"/>
<path d="M1590.892,451.66348 L1598.1161,382.35663 L1516.6305,453.91013 z" fill="#eff5fa" stroke="#eff5fa"/>
<path d="M1500.4438,43.010323 L1426.7118,170.5965 L1473.7397,181.64125 z" fill="#d3e5f0" stroke="#d3e5f0"/>
<path d="M1829.3726,516.0745 L1598.1161,382.35663 L1590.892,451.66348 z" fill="#fcfdfe" stroke="#fcfdfe"/>
<path d="M274.2859,884.14026 L276.81866,944.32874 L448.26804,958.0287 z" fill="#81b4d6" stroke="#81b4d6"/>
<path d="M448.26804,958.0287 L315.71683,1015.3358 L644.1153,1023.0026 z" fill="#94c0dc" stroke="#94c0dc"/>
<path d="M43.88505,948.6903 L274.2859,884.14026 L263.5789,816.0405 z" fill="#6faad0" stroke="#6faad0"/>
<path d="M1602.8851,698.55457 L1636.9412,541.83124 L1529.4025,610.8664 z" fill="#fcfdfe" stroke="#fcfdfe"/>
<path d="M276.81866,944.32874 L315.71683,1015.3358 L448.26804,958.0287 z" fill="#85b7d7" stroke="#85b7d7"/>
<path d="M644.1153,1023.0026 L91.71531,1063.1659 L1103.1417,1070.1727 z" fill="#a7cbe2" stroke="#a7cbe2"/>
<path d="M1611.4758,307.5194 L1473.7397,181.64125 L1574.8969,348.00247 z" fill="#e5eff6" stroke="#e5eff6"/>
<path d="M1500.4438,43.010323 L1407.865,11.365426 L1426.7118,170.5965 z" fill="#cee2ef" stroke="#cee2ef"/>
<path d="M1219.9905,48.579227 L1407.865,11.365426 L952.9297,3.5286546 z" fill="#afcfe4" stroke="#afcfe4"/>
<path d="M135.17874,655.40936 L167.44385,715.2975 L232.33017,675.78107 z" fill="#62a2cb" stroke="#62a2cb"/>
<path d="M232.33017,675.78107 L167.44385,715.2975 L263.5789,816.0405 z" fill="#6aa6ce" stroke="#6aa6ce"/>
<path d="M1702.5704,235.51372 L1611.4758,307.5194 L1598.1161,382.35663 z" fill="#f0f6fa" stroke="#f0f6fa"/>
<path d="M1598.1161,382.35663 L1611.4758,307.5194 L1574.8969,348.00247 z" fill="#eef4f9" stroke="#eef4f9"/>
<path d="M1388.8756,1011.5149 L1578.9064,898.2844 L1445.1637,831.6521 z" fill="#ffffff" stroke="#ffffff"/>
<path d="M1602.8851,698.55457 L1819.145,649.29767 L1636.9412,541.83124 z" fill="#ffffff" stroke="#ffffff"/>
<path d="M105.47149,440.17212 L316.01688,603.9845 L350.69516,449.33713 z" fill="#61a1cb" stroke="#61a1cb"/>
<path d="M167.44385,715.2975 L43.88505,948.6903 L263.5789,816.0405 z" fill="#68a5cd" stroke="#68a5cd"/>
<path d="M105.47149,440.17212 L350.69516,449.33713 L299.2256,328.14758 z" fill="#5b9ec9" stroke="#5b9ec9"/>
<path d="M1620.8795,113.97664 L1500.4438,43.010323 L1473.7397,181.64125 z" fill="#dae9f2" stroke="#dae9f2"/>
<path d="M29.740925,346.08987 L105.47149,440.17212 L299.2256,328.14758 z" fill="#4d95c5" stroke="#4d95c5"/>
<path d="M1103.1417,1070.1727 L1543.545,1064.8081 L1201.2915,1038.0837 z" fill="#f2f7fb" stroke="#f2f7fb"/>
<path d="M1388.8756,1011.5149 L1543.545,1064.8081 L1578.9064,898.2844 z" fill="#ffffff" stroke="#ffffff"/>
<path d="M1652.5518,197.16322 L1646.6504,203.50569 L1702.5704,235.51372 z" fill="#eef5f9" stroke="#eef5f9"/>
<path d="M1611.4758,307.5194 L1646.6504,203.50569 L1473.7397,181.64125 z" fill="#e5eff6" stroke="#e5eff6"/>
<path d="M1702.5704,235.51372 L1646.6504,203.50569 L1611.4758,307.5194 z" fill="#eff5f9" stroke="#eff5f9"/>
<path d="M1646.6504,203.50569 L1626.1647,133.73344 L1473.7397,181.64125 z" fill="#e2eef5" stroke="#e2eef5"/>
<path d="M1652.5518,197.16322 L1626.1647,133.73344 L1646.6504,203.50569 z" fill="#e9f2f8" stroke="#e9f2f8"/>
<path d="M1733.5054,131.19962 L1620.8795,113.97664 L1626.1647,133.73344 z" fill="#e9f1f7" stroke="#e9f1f7"/>
<path d="M1626.1647,133.73344 L1620.8795,113.97664 L1473.7397,181.64125 z" fill="#e0ecf4" stroke="#e0ecf4"/>
<path d="M1678.8171,1055.832 L1732.8502,793.9156 L1578.9064,898.2844 z" fill="#ffffff" stroke="#ffffff"/>
<path d="M1578.9064,898.2844 L1732.8502,793.9156 L1602.8851,698.55457 z" fill="#ffffff" stroke="#ffffff"/>
<path d="M1829.3726,516.0745 L1702.5704,235.51372 L1598.1161,382.35663 z" fill="#fcfdfe" stroke="#fcfdfe"/>
<path d="M382.50974,96.83865 L143.09438,148.4922 L392.86978,135.60051 z" fill="#5298c6" stroke="#5298c6"/>
<path d="M1829.3726,516.0745 L1590.892,451.66348 L1636.9412,541.83124 z" fill="#ffffff" stroke="#ffffff"/>
<path d="M1652.5518,197.16322 L1733.5054,131.19962 L1626.1647,133.73344 z" fill="#ebf3f8" stroke="#ebf3f8"/>
<path d="M143.09438,148.4922 L29.740925,346.08987 L299.2256,328.14758 z" fill="#4993c3" stroke="#4993c3"/>
<path d="M105.47149,440.17212 L6.703789,760.7191 L135.17874,655.40936 z" fill="#5499c7" stroke="#5499c7"/>
<path d="M29.740925,346.08987 L6.703789,760.7191 L105.47149,440.17212 z" fill="#4b94c4" stroke="#4b94c4"/>
<path d="M135.17874,655.40936 L6.703789,760.7191 L167.44385,715.2975 z" fill="#5c9ec9" stroke="#5c9ec9"/>
<path d="M276.81866,944.32874 L91.71531,1063.1659 L315.71683,1015.3358 z" fill="#7ab0d3" stroke="#7ab0d3"/>
<path d="M1543.545,1064.8081 L1678.8171,1055.832 L1578.9064,898.2844 z" fill="#ffffff" stroke="#ffffff"/>
<path d="M1831.2031,749.43756 L1819.145,649.29767 L1732.8502,793.9156 z" fill="#ffffff" stroke="#ffffff"/>
<path d="M1732.8502,793.9156 L1819.145,649.29767 L1602.8851,698.55457 z" fill="#ffffff" stroke="#ffffff"/>
<path d="M1819.145,649.29767 L1829.3726,516.0745 L1636.9412,541.83124 z" fill="#ffffff" stroke="#ffffff"/>
<path d="M952.9297,3.5286546 L133.8605,26.366186 L382.50974,96.83865 z" fill="#61a1cb" stroke="#61a1cb"/>
<path d="M382.50974,96.83865 L133.8605,26.366186 L143.09438,148.4922 z" fill="#4691c2" stroke="#4691c2"/>
<path d="M143.09438,148.4922 L31.373114,56.180073 L29.740925,346.08987 z" fill="#3a8abe" stroke="#3a8abe"/>
<path d="M1765.0743,102.02161 L1733.5054,131.19962 L1904.7445,175.4824 z" fill="#f9fbfd" stroke="#f9fbfd"/>
<path d="M1702.5704,235.51372 L1733.5054,131.19962 L1652.5518,197.16322 z" fill="#f0f6fa" stroke="#f0f6fa"/>
<path d="M1620.8795,113.97664 L1765.0743,102.02161 L1500.4438,43.010323 z" fill="#e3eef5" stroke="#e3eef5"/>
<path d="M6.703789,760.7191 L43.88505,948.6903 L167.44385,715.2975 z" fill="#5e9fca" stroke="#5e9fca"/>
<path d="M1819.145,649.29767 L1889.5232,502.94217 L1829.3726,516.0745 z" fill="#ffffff" stroke="#ffffff"/>
<path d="M1885.084,782.87756 L1831.2031,749.43756 L1732.8502,793.9156 z" fill="#ffffff" stroke="#ffffff"/>
<path d="M43.88505,948.6903 L91.71531,1063.1659 L276.81866,944.32874 z" fill="#6fa9cf" stroke="#6fa9cf"/>
<path d="M315.71683,1015.3358 L91.71531,1063.1659 L644.1153,1023.0026 z" fill="#89b9d8" stroke="#89b9d8"/>
<path d="M1904.7445,175.4824 L1733.5054,131.19962 L1702.5704,235.51372 z" fill="#f9fbfd" stroke="#f9fbfd"/>
<path d="M1733.5054,131.19962 L1765.0743,102.02161 L1620.8795,113.97664 z" fill="#edf4f9" stroke="#edf4f9"/>
<path d="M1500.4438,43.010323 L1765.0743,102.02161 L1407.865,11.365426 z" fill="#d9e8f2" stroke="#d9e8f2"/>
<path d="M1885.084,782.87756 L1889.5232,502.94217 L1819.145,649.29767 z" fill="#ffffff" stroke="#ffffff"/>
<path d="M1829.3726,516.0745 L1889.5232,502.94217 L1702.5704,235.51372 z" fill="#ffffff" stroke="#ffffff"/>
<path d="M133.8605,26.366186 L31.373114,56.180073 L143.09438,148.4922 z" fill="#3889be" stroke="#3889be"/>
<path d="M29.740925,346.08987 L31.373114,56.180073 L6.703789,760.7191 z" fill="#418ec0" stroke="#418ec0"/>
<path d="M1678.8171,1055.832 L1885.084,782.87756 L1732.8502,793.9156 z" fill="#ffffff" stroke="#ffffff"/>
<path d="M1831.2031,749.43756 L1885.084,782.87756 L1819.145,649.29767 z" fill="#ffffff" stroke="#ffffff"/>
<path d="M952.9297,3.5286546 L45.410812,0.38372135 L133.8605,26.366186 z" fill="#5399c6" stroke="#5399c6"/>
<path d="M133.8605,26.366186 L45.410812,0.38372135 L31.373114,56.180073 z" fill="#3285bc" stroke="#3285bc"/>
<path d="M1889.5232,502.94217 L1904.7445,175.4824 L1702.5704,235.51372 z" fill="#ffffff" stroke="#ffffff"/>
<path d="M1885.084,782.87756 L1904.7445,175.4824 L1889.5232,502.94217 z" fill="#ffffff" stroke="#ffffff"/>
</g>
</svg>